<svg xmlns="http://www.w3.org/2000/svg" viewBox="0 0 548.47 192.23"><defs><style>.a{fill:#fff;}.b{opacity:0.25;}</style></defs><title>fvrc-logo-c-white</title><path class="a" d="M210.07,148c-2.26-7.66-4.19-15.16-5.81-22.74l18.86,10.89c.08,6.57.21,13.11.43,19.63Zm13.66,12.48-11.91-6.87c3.81,12.09,8.49,24.68,14.23,38.65C224.89,181.72,224.17,171.13,223.73,160.44Zm-.34-72.2-25.93-15c.45,7.12,1,13.88,1.75,20.39l23.87,13.81q.06-9.61.31-19.18Zm-.31,43.2V112l-23.26-13.4c.92,7.33,2,14.39,3.39,21.34Zm8.44,24.27L245,147.92c2.27-7.65,4.2-15.15,5.82-22.74L232,136.08c-.07,6.6-.2,13.14-.43,19.66Zm-2.46,36.49c5.73-14,10.42-26.58,14.23-38.67l-11.94,6.91c-.45,10.69-1.16,21.28-2.29,31.79ZM232,107.44l23.87-13.78c.72-6.51,1.3-13.27,1.75-20.39l-25.93,15C231.82,94.64,232,101,232,107.44ZM197.17,68.51l26.36,15.21a457.84,457.84,0,0,1,4-49.48,463,463,0,0,1,4,49.48l26.35-15.21c.86-15.68,1.17-33.13,1.17-53.5.33-7.21-1.86-10.23-7.66-11.85a91.8,91.8,0,0,0-47.74,0c-5.8,1.62-8,4.64-7.66,11.85C196,35.38,196.32,52.83,197.17,68.51ZM232,119.37v12.09L251.93,120c1.36-7,2.48-14,3.39-21.34L232,112.07C232,114.5,232,116.94,232,119.37Z" transform="translate(0 0)"/><g class="b"><path class="a" d="M210.07,148c-2.26-7.66-4.19-15.16-5.81-22.74l18.86,10.89c.08,6.57.21,13.11.43,19.63Zm13.66,12.48-11.91-6.87c3.81,12.09,8.49,24.68,14.23,38.65C224.89,181.72,224.17,171.13,223.73,160.44Zm-.34-72.2-25.93-15c.45,7.12,1,13.88,1.75,20.39l23.87,13.81q.06-9.61.31-19.18Zm-.31,43.2V112l-23.26-13.4c.92,7.33,2,14.39,3.39,21.34Zm8.44,24.27L245,147.92c2.27-7.65,4.2-15.15,5.82-22.74L232,136.08c-.07,6.6-.2,13.14-.43,19.66Zm-2.46,36.49c5.73-14,10.42-26.58,14.23-38.67l-11.94,6.91c-.45,10.69-1.16,21.28-2.29,31.79ZM232,107.44l23.87-13.78c.72-6.51,1.3-13.27,1.75-20.39l-25.93,15C231.82,94.64,232,101,232,107.44ZM197.17,68.51l26.36,15.21a457.84,457.84,0,0,1,4-49.48,463,463,0,0,1,4,49.48l26.35-15.21c.86-15.68,1.17-33.13,1.17-53.5.33-7.21-1.86-10.23-7.66-11.85a91.8,91.8,0,0,0-47.74,0c-5.8,1.62-8,4.64-7.66,11.85C196,35.38,196.32,52.83,197.17,68.51ZM232,119.37v12.09L251.93,120c1.36-7,2.48-14,3.39-21.34L232,112.07C232,114.5,232,116.94,232,119.37Z" transform="translate(0 0)"/></g><path class="a" d="M274,102.37V68.51h14.53v5.08H279v9.28H286V88H279v14.42Zm21,0V68.54h8.1c2.84,0,5,.79,6.3,2.36a8.55,8.55,0,0,1,1.78,5.7v5a7.8,7.8,0,0,1-2.86,6.07l3.78,14.75h-5.24l-3.27-12.73h-3.46v12.69ZM300,84.59h3.09a3,3,0,0,0,2.92-3v-5c0-2-1-3-2.92-3H300Zm18.55,17.78,5.6-33.83h7l5.63,33.83h-5.08l-1.24-7.65h-5.36l-1.21,7.65Zm7.33-12.73h3.8L327.83,76.3Zm17.62,3.29,5.09-.36a7.4,7.4,0,0,0,1.46,4.23,2.47,2.47,0,0,0,1.87.91h.14a3,3,0,0,0,2.5-1.58,4,4,0,0,0,.47-2.14,6.12,6.12,0,0,0-1.71-4l-4.53-4.28a19.35,19.35,0,0,1-3.62-4.44,10.39,10.39,0,0,1-1.09-4.83,8.31,8.31,0,0,1,3-6.93,7.38,7.38,0,0,1,4.7-1.37,8.77,8.77,0,0,1,4.64,1.2,6.73,6.73,0,0,1,2.4,2.62A9.49,9.49,0,0,1,360,75.85l-4.81.9A5.73,5.73,0,0,0,354,73.52a2.52,2.52,0,0,0-2-.82,2.36,2.36,0,0,0-2.18,1.24,4.72,4.72,0,0,0-.56,2.47,7.19,7.19,0,0,0,2.06,4.75,18.22,18.22,0,0,0,2.39,2.17c1.26,1.07,2,1.76,2.35,2.07A17.12,17.12,0,0,1,358.81,89a11.5,11.5,0,0,1,1.43,4.66v.22a10,10,0,0,1-1.81,6,6.43,6.43,0,0,1-3.51,2.57,9,9,0,0,1-2.77.41,7.65,7.65,0,0,1-4.9-1.53,8.15,8.15,0,0,1-2.53-3.41,14.24,14.24,0,0,1-1.14-5Zm23.4,9.44V68.51h14.53v5.08H372v9.28h6.92V88H372v9.34h9.45v5.08Zm21,0V68.54H396q4.27,0,6.3,2.36a8.55,8.55,0,0,1,1.78,5.7v5a7.8,7.8,0,0,1-2.86,6.07L405,102.42h-5.22l-3.27-12.73h-3.46v12.69ZM393,84.59h3.09a2.81,2.81,0,0,0,2.09-.9,2.89,2.89,0,0,0,.83-2.06v-5c0-2-1-3-2.92-3H393Zm28.2-16h5.37l4.23,26.4,4.3-26.4H440l-5.65,33.83h-7.54Zm24.23,33.83,5.6-33.83h7l5.62,33.83h-5.08l-1.24-7.65H452l-1.21,7.65Zm7.37-12.73h3.8L454.73,76.3Zm17.63,12.73V68.54h5.08V97.29h8.83v5.08Zm20.42,0V68.54H496V97.29h8.84v5.08Zm20.43,0V68.51h14.52v5.08h-9.45v9.28h6.92V88h-6.92v9.34h9.45v5.08Zm19.52-33.86h5l3.79,12.17,3.78-12.17h5.08L542.15,86.7v15.67h-5.09V86.7ZM274,148.56V114.74h8.1q4.28,0,6.31,2.35a8.61,8.61,0,0,1,1.77,5.7v5a7.7,7.7,0,0,1-2.86,6.06l3.79,14.75h-5.33l-3.27-12.73H279v12.69ZM279,130.79h3.09a2.76,2.76,0,0,0,2.09-.91,2.89,2.89,0,0,0,.83-2.06v-5c0-2-1-3-2.92-3H279Zm18.55,10.09V122.44A7.68,7.68,0,0,1,300,116.7a8,8,0,0,1,5.73-2.35,7.39,7.39,0,0,1,5.54,2.35,8.15,8.15,0,0,1,2.32,5.74V140.9a7.85,7.85,0,0,1-2.32,5.75,7.58,7.58,0,0,1-5.54,2.36,7.79,7.79,0,0,1-5.77-2.4,8,8,0,0,1-2.37-5.73Zm5.09.08a2.91,2.91,0,0,0,5.82,0v-18.6a2.85,2.85,0,0,0-.87-2.06,2.89,2.89,0,0,0-4.95,2.06Zm17.58-26.22h5.37l2.65,18.12,2.47-18.12h5.32l2.7,18.12,2.48-18.12h5l-4.94,33.82h-5l-3-18.46-2.76,18.46h-5Zm32.82,33.82V114.74h5.09v33.82Zm11.62,0V114.7h5.71l6.79,22.74V114.7h5.09v33.86h-5.47l-7-21.65v21.65Zm24.12-7.64V122.44a7.84,7.84,0,0,1,2.33-5.73,7.61,7.61,0,0,1,5.55-2.36,7.79,7.79,0,0,1,5.75,2.4,8,8,0,0,1,2.37,5.69v3.88h-5.08v-4a2.65,2.65,0,0,0-.91-2,3.21,3.21,0,0,0-2.26-.87,2.42,2.42,0,0,0-1.86.87,3,3,0,0,0-.8,2.07V141a3,3,0,0,0,.8,2.07,2.42,2.42,0,0,0,1.86.83,3.15,3.15,0,0,0,2.26-.84,2.76,2.76,0,0,0,.91-2.09V134.2h-3.07v-5.08h8.15v11.8a8,8,0,0,1-7.93,8.07h-.18a7.47,7.47,0,0,1-5.59-2.36A8.08,8.08,0,0,1,388.82,140.92Zm33.75,0V122.44a7.75,7.75,0,0,1,2.41-5.73,8,8,0,0,1,5.73-2.36,7.44,7.44,0,0,1,5.58,2.4,8.06,8.06,0,0,1,2.28,5.69v3.88h-5.09v-4a2.73,2.73,0,0,0-.83-2,2.84,2.84,0,0,0-2.09-.87,2.79,2.79,0,0,0-2,.87,2.87,2.87,0,0,0-.87,2.07V141a2.87,2.87,0,0,0,.87,2.07,3,3,0,0,0,4.12,0,2.86,2.86,0,0,0,.83-2.09v-4.76h5.09v4.72a8,8,0,0,1-2.32,5.75,7.51,7.51,0,0,1-5.54,2.32,7.86,7.86,0,0,1-5.77-2.37A7.76,7.76,0,0,1,422.57,140.92Zm22.67,7.64V114.74h5.09v28.7h8.83v5.08Zm18.91-7.68V114.74h5.09v26.17a2.92,2.92,0,0,0,2.9,2.94,3,3,0,0,0,2.92-2.94V114.74h5.09v26.14a7.74,7.74,0,0,1-2.37,5.75,8,8,0,0,1-11.3,0,7.85,7.85,0,0,1-2.33-5.7Zm22.67,7.68V114.7h7.3a9.09,9.09,0,0,1,5.22,1.58,7.61,7.61,0,0,1,2.83,4.17,11.4,11.4,0,0,1,.46,3.58,8.16,8.16,0,0,1-1.69,5.4,5,5,0,0,1-1.65,1.33,5.45,5.45,0,0,1,2.57,2.6,12.22,12.22,0,0,1,1.07,3.38,16.73,16.73,0,0,1,.16,2.34,11.93,11.93,0,0,1-1.15,5.48,7.24,7.24,0,0,1-2.55,2.83,6.56,6.56,0,0,1-3.63,1.17Zm5.09-20.21h2.14a3.11,3.11,0,0,0,3.2-2.3,6.92,6.92,0,0,0,.3-2.12,4.44,4.44,0,0,0-1-3.17,3.28,3.28,0,0,0-2.47-1h-2.14Zm0,15.13h2.14a3.66,3.66,0,0,0,3.61-2.67,7.5,7.5,0,0,0-.77-6.21,3.44,3.44,0,0,0-2.84-1.16h-2.14Z" transform="translate(0 0)"/><g class="b"><path class="a" d="M274,102.37V68.51h14.53v5.08H279v9.28H286V88H279v14.42Zm21,0V68.54h8.1c2.84,0,5,.79,6.3,2.36a8.55,8.55,0,0,1,1.78,5.7v5a7.8,7.8,0,0,1-2.86,6.07l3.78,14.75h-5.24l-3.27-12.73h-3.46v12.69ZM300,84.59h3.09a3,3,0,0,0,2.92-3v-5c0-2-1-3-2.92-3H300Zm18.55,17.78,5.6-33.83h7l5.63,33.83h-5.08l-1.24-7.65h-5.36l-1.21,7.65Zm7.33-12.73h3.8L327.83,76.3Zm17.62,3.29,5.09-.36a7.4,7.4,0,0,0,1.46,4.23,2.47,2.47,0,0,0,1.87.91h.14a3,3,0,0,0,2.5-1.58,4,4,0,0,0,.47-2.14,6.12,6.12,0,0,0-1.71-4l-4.53-4.28a19.35,19.35,0,0,1-3.62-4.44,10.39,10.39,0,0,1-1.09-4.83,8.31,8.31,0,0,1,3-6.93,7.38,7.38,0,0,1,4.7-1.37,8.77,8.77,0,0,1,4.64,1.2,6.73,6.73,0,0,1,2.4,2.62A9.49,9.49,0,0,1,360,75.85l-4.81.9A5.73,5.73,0,0,0,354,73.52a2.52,2.52,0,0,0-2-.82,2.36,2.36,0,0,0-2.18,1.24,4.72,4.72,0,0,0-.56,2.47,7.19,7.19,0,0,0,2.06,4.75,18.22,18.22,0,0,0,2.39,2.17c1.26,1.07,2,1.76,2.35,2.07A17.12,17.12,0,0,1,358.81,89a11.5,11.5,0,0,1,1.43,4.66v.22a10,10,0,0,1-1.81,6,6.43,6.43,0,0,1-3.51,2.57,9,9,0,0,1-2.77.41,7.65,7.65,0,0,1-4.9-1.53,8.15,8.15,0,0,1-2.53-3.41,14.24,14.24,0,0,1-1.14-5Zm23.4,9.44V68.51h14.53v5.08H372v9.28h6.92V88H372v9.34h9.45v5.08Zm21,0V68.54H396q4.27,0,6.3,2.36a8.55,8.55,0,0,1,1.78,5.7v5a7.8,7.8,0,0,1-2.86,6.07L405,102.42h-5.22l-3.27-12.73h-3.46v12.69ZM393,84.59h3.09a2.81,2.81,0,0,0,2.09-.9,2.89,2.89,0,0,0,.83-2.06v-5c0-2-1-3-2.92-3H393Zm28.2-16h5.37l4.23,26.4,4.3-26.4H440l-5.65,33.83h-7.54Zm24.23,33.83,5.6-33.83h7l5.62,33.83h-5.08l-1.24-7.65H452l-1.21,7.65Zm7.37-12.73h3.8L454.73,76.3Zm17.63,12.73V68.54h5.08V97.29h8.83v5.08Zm20.42,0V68.54H496V97.29h8.84v5.08Zm20.43,0V68.51h14.52v5.08h-9.45v9.28h6.92V88h-6.92v9.34h9.45v5.08Zm19.52-33.86h5l3.79,12.17,3.78-12.17h5.08L542.15,86.7v15.67h-5.09V86.7ZM274,148.56V114.74h8.1q4.28,0,6.31,2.35a8.61,8.61,0,0,1,1.77,5.7v5a7.7,7.7,0,0,1-2.86,6.06l3.79,14.75h-5.33l-3.27-12.73H279v12.69ZM279,130.79h3.09a2.76,2.76,0,0,0,2.09-.91,2.89,2.89,0,0,0,.83-2.06v-5c0-2-1-3-2.92-3H279Zm18.55,10.09V122.44A7.68,7.68,0,0,1,300,116.7a8,8,0,0,1,5.73-2.35,7.39,7.39,0,0,1,5.54,2.35,8.15,8.15,0,0,1,2.32,5.74V140.9a7.85,7.85,0,0,1-2.32,5.75,7.58,7.58,0,0,1-5.54,2.36,7.79,7.79,0,0,1-5.77-2.4,8,8,0,0,1-2.37-5.73Zm5.09.08a2.91,2.91,0,0,0,5.82,0v-18.6a2.85,2.85,0,0,0-.87-2.06,2.89,2.89,0,0,0-4.95,2.06Zm17.58-26.22h5.37l2.65,18.12,2.47-18.12h5.32l2.7,18.12,2.48-18.12h5l-4.94,33.82h-5l-3-18.46-2.76,18.46h-5Zm32.82,33.82V114.74h5.09v33.82Zm11.62,0V114.7h5.71l6.79,22.74V114.7h5.09v33.86h-5.47l-7-21.65v21.65Zm24.12-7.64V122.44a7.84,7.84,0,0,1,2.33-5.73,7.61,7.61,0,0,1,5.55-2.36,7.79,7.79,0,0,1,5.75,2.4,8,8,0,0,1,2.37,5.69v3.88h-5.08v-4a2.65,2.65,0,0,0-.91-2,3.21,3.21,0,0,0-2.26-.87,2.42,2.42,0,0,0-1.86.87,3,3,0,0,0-.8,2.07V141a3,3,0,0,0,.8,2.07,2.42,2.42,0,0,0,1.86.83,3.15,3.15,0,0,0,2.26-.84,2.76,2.76,0,0,0,.91-2.09V134.2h-3.07v-5.08h8.15v11.8a8,8,0,0,1-7.93,8.07h-.18a7.47,7.47,0,0,1-5.59-2.36A8.08,8.08,0,0,1,388.82,140.92Zm33.75,0V122.44a7.75,7.75,0,0,1,2.41-5.73,8,8,0,0,1,5.73-2.36,7.44,7.44,0,0,1,5.58,2.4,8.06,8.06,0,0,1,2.28,5.69v3.88h-5.09v-4a2.73,2.73,0,0,0-.83-2,2.84,2.84,0,0,0-2.09-.87,2.79,2.79,0,0,0-2,.87,2.87,2.87,0,0,0-.87,2.07V141a2.87,2.87,0,0,0,.87,2.07,3,3,0,0,0,4.12,0,2.86,2.86,0,0,0,.83-2.09v-4.76h5.09v4.72a8,8,0,0,1-2.32,5.75,7.51,7.51,0,0,1-5.54,2.32,7.86,7.86,0,0,1-5.77-2.37A7.76,7.76,0,0,1,422.57,140.92Zm22.67,7.64V114.74h5.09v28.7h8.83v5.08Zm18.91-7.68V114.74h5.09v26.17a2.92,2.92,0,0,0,2.9,2.94,3,3,0,0,0,2.92-2.94V114.74h5.09v26.14a7.74,7.74,0,0,1-2.37,5.75,8,8,0,0,1-11.3,0,7.85,7.85,0,0,1-2.33-5.7Zm22.67,7.68V114.7h7.3a9.09,9.09,0,0,1,5.22,1.58,7.61,7.61,0,0,1,2.83,4.17,11.4,11.4,0,0,1,.46,3.58,8.16,8.16,0,0,1-1.69,5.4,5,5,0,0,1-1.65,1.33,5.45,5.45,0,0,1,2.57,2.6,12.22,12.22,0,0,1,1.07,3.38,16.73,16.73,0,0,1,.16,2.34,11.93,11.93,0,0,1-1.15,5.48,7.24,7.24,0,0,1-2.55,2.83,6.56,6.56,0,0,1-3.63,1.17Zm5.09-20.21h2.14a3.11,3.11,0,0,0,3.2-2.3,6.92,6.92,0,0,0,.3-2.12,4.44,4.44,0,0,0-1-3.17,3.28,3.28,0,0,0-2.47-1h-2.14Zm0,15.13h2.14a3.66,3.66,0,0,0,3.61-2.67,7.5,7.5,0,0,0-.77-6.21,3.44,3.44,0,0,0-2.84-1.16h-2.14Z" transform="translate(0 0)"/></g><path class="a" d="M0,148.56V68.36H34.41V80.44H12v22H28.43v12H12v34.15ZM40.82,68.44H53.55l10,62.53L73.7,68.44H85.17L71.82,148.56H53.94ZM94.6,148.55V68.44h19.22q10.11,0,14.94,5.58,4.16,4.78,4.19,13.49V99.25a18.31,18.31,0,0,1-6.76,14.37l9,34.93H122.52l-7.7-30.11a5.29,5.29,0,0,0-.56,0,5,5,0,0,1-.55,0h-7v30.06Zm12-42.1h7.31a6.57,6.57,0,0,0,4.94-2.13,6.72,6.72,0,0,0,2-4.9V87.6q0-7.11-6.92-7.11h-7.31Zm36.73,24V86.73A18.27,18.27,0,0,1,149,73.15a18.92,18.92,0,0,1,13.57-5.58,17.64,17.64,0,0,1,13.21,5.67,19.08,19.08,0,0,1,5.4,13.49v9.18h-12V86.52a6.57,6.57,0,0,0-2-4.86,6.77,6.77,0,0,0-5-2,6.57,6.57,0,0,0-4.82,2.07,6.74,6.74,0,0,0-2.06,4.9V130.7a6.85,6.85,0,0,0,2.06,4.9,6.54,6.54,0,0,0,4.82,2,6.62,6.62,0,0,0,5-2,6.79,6.79,0,0,0,2-5V119.29h12v11.15a18.77,18.77,0,0,1-5.39,13.64,17.74,17.74,0,0,1-13.12,5.49,18.6,18.6,0,0,1-13.65-5.6,18.4,18.4,0,0,1-5.66-13.53Z" transform="translate(0 0)"/><g class="b"><path class="a" d="M0,148.56V68.36H34.41V80.44H12v22H28.43v12H12v34.15ZM40.82,68.44H53.55l10,62.53L73.7,68.44H85.17L71.82,148.56H53.94ZM94.6,148.55V68.44h19.22q10.11,0,14.94,5.58,4.16,4.78,4.19,13.49V99.25a18.31,18.31,0,0,1-6.76,14.37l9,34.93H122.52l-7.7-30.11a5.29,5.29,0,0,0-.56,0,5,5,0,0,1-.55,0h-7v30.06Zm12-42.1h7.31a6.57,6.57,0,0,0,4.94-2.13,6.72,6.72,0,0,0,2-4.9V87.6q0-7.11-6.92-7.11h-7.31Zm36.73,24V86.73A18.27,18.27,0,0,1,149,73.15a18.92,18.92,0,0,1,13.57-5.58,17.64,17.64,0,0,1,13.21,5.67,19.08,19.08,0,0,1,5.4,13.49v9.18h-12V86.52a6.57,6.57,0,0,0-2-4.86,6.77,6.77,0,0,0-5-2,6.57,6.57,0,0,0-4.82,2.07,6.74,6.74,0,0,0-2.06,4.9V130.7a6.85,6.85,0,0,0,2.06,4.9,6.54,6.54,0,0,0,4.82,2,6.62,6.62,0,0,0,5-2,6.79,6.79,0,0,0,2-5V119.29h12v11.15a18.77,18.77,0,0,1-5.39,13.64,17.74,17.74,0,0,1-13.12,5.49,18.6,18.6,0,0,1-13.65-5.6,18.4,18.4,0,0,1-5.66-13.53Z" transform="translate(0 0)"/></g></svg>